<?xml version="1.0" encoding="UTF-8"?>
<!-- Generator: Adobe Illustrator 15.0.2, SVG Export Plug-In . SVG Version: 6.00 Build 0)  -->
<!-- SVG from http://uxrepo.com/download/icon_calculator_alt-by-elegant/ -->
<!DOCTYPE svg PUBLIC "-//W3C//DTD SVG 1.1//EN" "http://www.w3.org/Graphics/SVG/1.1/DTD/svg11.dtd">
<?xml-stylesheet type="text/css" href="svg.css" ?>
<svg xmlns="http://www.w3.org/2000/svg" xmlns:xlink="http://www.w3.org/1999/xlink" version="1.1" id="Layer_1" x="0px" y="0px" width="512px" height="682.667px" viewBox="0 0 512 682.667" enable-background="new 0 0 512 682.667" xml:space="preserve">
<g>
	<path class="image" d="M42.667,682.667h426.666C492.875,682.667,512,663.542,512,640V42.667C512,19.114,492.875,0,469.333,0H42.667   C19.114,0,0,19.114,0,42.667V640C0,663.542,19.114,682.667,42.667,682.667z M384,469.333c-23.542,0-42.667-19.125-42.667-42.666   C341.333,403.125,360.458,384,384,384s42.667,19.125,42.667,42.667C426.667,450.208,407.542,469.333,384,469.333z M426.667,554.667   c0,23.541-19.125,42.666-42.667,42.666s-42.667-19.125-42.667-42.666C341.333,531.125,360.458,512,384,512   S426.667,531.125,426.667,554.667z M384,341.333c-23.542,0-42.667-19.114-42.667-42.666C341.333,275.114,360.458,256,384,256   s42.667,19.114,42.667,42.667C426.667,322.219,407.542,341.333,384,341.333z M85.333,170.667V85.333h341.334v85.334H85.333z    M256,469.333c-23.552,0-42.667-19.125-42.667-42.666C213.333,403.125,232.448,384,256,384c23.542,0,42.667,19.125,42.667,42.667   C298.667,450.208,279.542,469.333,256,469.333z M298.667,554.667c0,23.541-19.125,42.666-42.667,42.666   c-23.552,0-42.667-19.125-42.667-42.666C213.333,531.125,232.448,512,256,512C279.542,512,298.667,531.125,298.667,554.667z    M256,341.333c-23.552,0-42.667-19.114-42.667-42.666C213.333,275.114,232.448,256,256,256c23.542,0,42.667,19.114,42.667,42.667   C298.667,322.219,279.542,341.333,256,341.333z M128,256c23.552,0,42.667,19.114,42.667,42.667   c0,23.552-19.115,42.666-42.667,42.666s-42.667-19.114-42.667-42.666C85.333,275.114,104.448,256,128,256z M128,384   c23.552,0,42.667,19.125,42.667,42.667c0,23.541-19.115,42.666-42.667,42.666s-42.667-19.125-42.667-42.666   C85.333,403.125,104.448,384,128,384z M128,512c23.552,0,42.667,19.125,42.667,42.667c0,23.541-19.115,42.666-42.667,42.666   s-42.667-19.125-42.667-42.666C85.333,531.125,104.448,512,128,512z"/>
</g>
</svg>
