<?xml version="1.0" encoding="UTF-8"?>
<!-- Generator: Adobe Illustrator 15.0.2, SVG Export Plug-In . SVG Version: 6.00 Build 0)  -->
<!-- SVG from http://uxrepo.com/icon/quote-left-by-iconic -->
<!DOCTYPE svg PUBLIC "-//W3C//DTD SVG 1.1//EN" "http://www.w3.org/Graphics/SVG/1.1/DTD/svg11.dtd">
<?xml-stylesheet type="text/css" href="svg.css" ?>
<svg xmlns="http://www.w3.org/2000/svg" xmlns:xlink="http://www.w3.org/1999/xlink" version="1.1" id="Layer_1" x="0px" y="0px" width="512px" height="480.078px" viewBox="0 0 512 480.078" enable-background="new 0 0 512 480.078" xml:space="preserve">
<g>
	<path class="image" d="M511.772,20.188C510.63,8.864,501.188,0,489.564,0H21.815v0.062C10.48,0.374,1.344,9.071,0.227,20.188H0v374.63h0.451   c2.029,10.064,10.786,17.623,21.374,17.922v0.052h76.893v44.845c0,12.402,10.039,22.441,22.429,22.441   c7.75,0,14.587-3.936,18.616-9.922l57.364-57.364h292.438c10.864,0,19.916-7.728,21.981-17.974H512V20.188H511.772z    M112.367,244.444c-20.312,0-38.48-15.993-38.48-44.097c0-32.438,17.733-61.403,44.545-80.426l0.095,0.081   c0.655-0.334,1.366-0.567,2.152-0.567c1.091,0,2.049,0.425,2.86,1.038l0.052-0.048l17.974,11.344l-0.106,0.101   c1.275,0.87,2.162,2.263,2.162,3.926c0,1.841-1.071,3.396-2.594,4.207l0.013,0.014c-0.101,0.052-0.205,0.133-0.306,0.185   c-0.025,0.013-0.045,0.036-0.081,0.049c-13.73,7.474-28.324,24.772-32.175,40.201c1.73-0.863,5.188-1.299,8.652-1.299   c16.429,0,29.396,12.536,29.396,31.127C146.532,228.877,130.958,244.444,112.367,244.444z M200.357,244.444   c-20.312,0-38.478-15.993-38.478-44.097c0-32.438,17.733-61.403,44.542-80.426l0.095,0.081c0.659-0.334,1.37-0.567,2.152-0.567   c1.091,0,2.049,0.425,2.86,1.038l0.052-0.048l17.975,11.344l-0.107,0.101c1.279,0.87,2.162,2.263,2.162,3.926   c0,1.841-1.071,3.396-2.594,4.207l0.013,0.014c-0.098,0.052-0.205,0.133-0.306,0.185c-0.025,0.013-0.045,0.036-0.077,0.049   c-13.734,7.474-28.328,24.772-32.179,40.201c1.73-0.863,5.188-1.299,8.652-1.299c16.429,0,29.396,12.536,29.396,31.127   C234.517,228.877,218.951,244.444,200.357,244.444z M305.578,292.237l-0.098-0.085c-0.656,0.331-1.363,0.565-2.149,0.565   c-1.091,0-2.045-0.429-2.863-1.039l-0.052,0.052l-17.975-11.351l0.11-0.098c-1.279-0.87-2.162-2.26-2.162-3.922   c0-1.838,1.071-3.396,2.598-4.208l-0.014-0.013c0.091-0.059,0.202-0.137,0.299-0.188c0.026-0.013,0.052-0.032,0.078-0.045   c13.74-7.475,28.331-24.773,32.182-40.202c-1.727,0.864-5.188,1.296-8.649,1.296c-16.429,0-29.402-12.532-29.402-31.127   c0-18.597,15.578-34.155,34.169-34.155c20.312,0,38.48,15.99,38.48,44.097C350.117,244.243,332.39,273.211,305.578,292.237z    M393.571,292.237l-0.098-0.085c-0.655,0.331-1.37,0.565-2.149,0.565c-1.091,0-2.052-0.429-2.863-1.039l-0.052,0.052   l-17.974-11.351l0.11-0.098c-1.279-0.87-2.169-2.26-2.169-3.922c0-1.838,1.077-3.396,2.597-4.208l-0.013-0.013   c0.104-0.059,0.208-0.137,0.306-0.188c0.025-0.013,0.045-0.032,0.084-0.045c13.728-7.475,28.325-24.773,32.169-40.202   c-1.728,0.864-5.182,1.296-8.649,1.296c-16.429,0-29.396-12.532-29.396-31.127c0-18.597,15.578-34.155,34.163-34.155   c20.317,0,38.48,15.99,38.48,44.097C438.117,244.243,420.377,273.211,393.571,292.237z"/>
</g>
</svg>
