<?xml version="1.0" encoding="utf-8"?>
<!-- Svg Vector Icons : http://www.onlinewebfonts.com/icon -->
<!DOCTYPE svg PUBLIC "-//W3C//DTD SVG 1.1//EN" "http://www.w3.org/Graphics/SVG/1.1/DTD/svg11.dtd">
<svg version="1.1" xmlns="http://www.w3.org/2000/svg" xmlns:xlink="http://www.w3.org/1999/xlink" x="0px" y="0px" viewBox="0 0 1000 1000" enable-background="new 0 0 1000 1000" xml:space="preserve">
<metadata> Svg Vector Icons : http://www.onlinewebfonts.com/icon </metadata>
<?xml-stylesheet type="text/css" href="svg.css" ?>
<g><g><g><path class="image" d="M243.9,990l141.8-206.3h228.5L756.1,990h76.8L690,782.1c48.3-8.3,85.1-50.2,85.1-100.9v-500c0-56.6-45.9-102.5-102.5-102.5H586V44.4c0-19-15.4-34.4-34.4-34.4s-34.4,15.4-34.4,34.4v34.4h-51.6V44.4c0-19-15.4-34.4-34.4-34.4s-34.4,15.4-34.4,34.4v34.4h-86.7c-56.6,0-102.5,45.9-102.5,102.5v500c0,56.2,45.2,101.7,101.2,102.4L167.1,990H243.9z M632.2,694.2c-29.5,0-53.3-23.9-53.3-53.3s23.9-53.3,53.3-53.3c29.5,0,53.3,23.9,53.3,53.3S661.6,694.2,632.2,694.2z M345.3,491.4h292.3c9.5,0,17.2,7.7,17.2,17.2c0,9.5-7.7,17.2-17.2,17.2H345.3c-9.5,0-17.2-7.7-17.2-17.2C328.1,499.1,335.8,491.4,345.3,491.4z M328.1,457c0-9.5,7.7-17.2,17.2-17.2h292.3c9.5,0,17.2,7.7,17.2,17.2s-7.7,17.2-17.2,17.2H345.3C335.8,474.2,328.1,466.5,328.1,457z M276.5,198.8c0-28.3,22.9-51.2,51.2-51.2h103.5h120.4h103.5c28.3,0,51.2,22.9,51.2,51.2v121.1c0,28.3-22.9,51.2-51.2,51.2H327.7c-28.3,0-51.2-22.9-51.2-51.2L276.5,198.8L276.5,198.8z M284.5,640.9c0-29.5,23.9-53.3,53.3-53.3c29.5,0,53.3,23.9,53.3,53.3s-23.9,53.3-53.3,53.3C308.4,694.2,284.5,670.3,284.5,640.9z"/></g></g><g></g><g></g><g></g><g></g><g></g><g></g><g></g><g></g><g></g><g></g><g></g><g></g><g></g><g></g><g></g></g>
</svg>
