<?xml version="1.0" encoding="UTF-8"?>
<!-- Generator: Adobe Illustrator 15.0.2, SVG Export Plug-In . SVG Version: 6.00 Build 0)  -->
<!-- SVG from http://uxrepo.com/download/measure-farenheit-by-windows -->
<!DOCTYPE svg PUBLIC "-//W3C//DTD SVG 1.1//EN" "http://www.w3.org/Graphics/SVG/1.1/DTD/svg11.dtd">
<?xml-stylesheet type="text/css" href="stylesheet.css" ?>
<svg xmlns="http://www.w3.org/2000/svg" xmlns:xlink="http://www.w3.org/1999/xlink" version="1.1" id="Layer_1" x="0px" y="0px" width="512px" height="441.197px" viewBox="0 0 512 441.197" enable-background="new 0 0 512 441.197" xml:space="preserve">
<path class="image" d="M0,334.539h42.664v64h426.678v-64H512v106.658H0V334.539z M104.283,270.289V4.355h162.375v50.52H163.52v60.605h96.375  v47.289H163.52v107.52H104.283z M359.289,0c17.855,0.447,32.105,6.099,42.737,16.934c10.645,10.842,16.092,24.171,16.355,39.974  c-0.487,17.217-6.461,31.125-17.921,41.724C389,109.224,375.026,114.678,358.5,114.987c-17.5-0.408-31.658-5.954-42.447-16.651  c-10.776-10.698-16.329-24.119-16.632-40.264c0.211-16.533,5.947-30.243,17.185-41.138C327.829,6.046,342.053,0.401,359.289,0z   M358.5,27.375c-8.5,0.256-15.211,3.335-20.158,9.23c-4.947,5.895-7.46,13.053-7.565,21.467c0.171,8.54,2.855,15.553,8.053,21.033  s11.882,8.315,20.065,8.5c8.343-0.178,15.093-3.026,20.211-8.546c5.132-5.521,7.763-12.646,7.921-21.375  c-0.026-8.06-2.421-15.06-7.237-20.987C375,30.776,367.895,27.665,358.5,27.375z"/>
</svg>
